<mxfile host="app.diagrams.net" modified="2023-05-03T08:29:51.230Z" agent="Mozilla/5.0 (Macintosh; Intel Mac OS X 10.15; rv:109.0) Gecko/20100101 Firefox/112.0" version="21.2.6" etag="awyXibJCeabMeE-MTkrn" type="github">
  <diagram name="Page-1" id="xjgbMSskJ8co9ed0ZGB9">
    <mxGraphModel>
      <root>
        <mxCell id="0" />
        <mxCell id="1" parent="0" />
      </root>
    </mxGraphModel>
  </diagram>
</mxfile>
